<svg width="279" height="271" viewBox="0 0 279 271" fill="none" xmlns="http://www.w3.org/2000/svg">
<g filter="url(#filter0_d)">
<path d="M139 6C108.564 6 81 30.6718 81 61.1145C81 91.55 106.15 127.887 139 180C171.85 127.887 197 91.55 197 61.1145C197 30.6718 169.443 6 139 6ZM139 85.75C126.987 85.75 117.25 76.0133 117.25 64C117.25 51.9868 126.987 42.25 139 42.25C151.013 42.25 160.75 51.9868 160.75 64C160.75 76.0133 151.013 85.75 139 85.75Z" fill="#2D2D2D"/>
<ellipse cx="139" cy="66.9" rx="34.8" ry="34.8" fill="#599CFF"/>
<g clip-path="url(#clip0)" filter="url(#filter1_d)">
<path d="M151.422 76.4286H126.576L126.571 75.1381C126.571 72.5301 126.779 71.0242 129.861 70.3116C133.349 69.5058 136.788 68.7871 135.133 65.7358C130.232 56.6982 133.736 51.5714 138.998 51.5714C144.158 51.5714 147.752 56.5076 142.863 65.7379C141.258 68.7705 144.574 69.4913 148.135 70.3137C151.221 71.0263 151.426 72.5343 151.426 75.1463L151.422 76.4286ZM161.388 71.8424C158.716 71.2251 156.23 70.6845 157.434 68.4101C161.098 61.4873 158.405 57.7857 154.534 57.7857C151.913 57.7857 149.877 59.4781 149.877 62.5997C149.877 70.6845 154.575 66.2661 154.529 76.4286H163.853L163.857 75.4695C163.857 73.5099 163.704 72.3768 161.388 71.8424ZM114.147 76.4286H123.471C123.427 66.2661 128.123 70.6866 128.123 62.5997C128.123 59.4781 126.087 57.7857 123.466 57.7857C119.595 57.7857 116.902 61.4873 120.568 68.4101C121.772 70.6866 119.286 71.2251 116.614 71.8424C114.296 72.3768 114.143 73.5099 114.143 75.4695L114.147 76.4286Z" fill="#2D2D2D"/>
</g>
</g>
<g filter="url(#filter2_d)">
<path d="M11.284 257.054C8.928 257.054 7.23333 256.641 6.2 255.814C5.16667 254.987 4.65 253.603 4.65 251.66C4.65 249.717 5.332 243.848 6.696 234.052C8.10133 224.215 8.804 217.209 8.804 213.034C8.804 208.818 8.51467 206.069 7.936 204.788C12.1107 205.119 14.88 206.751 16.244 209.686C19.22 208.033 22.5887 207.206 26.35 207.206C30.1527 207.206 33.2527 208.301 35.65 210.492C38.0887 212.641 39.308 215.142 39.308 217.994C39.308 220.846 38.3367 223.698 36.394 226.55C34.4513 229.361 31.558 231.489 27.714 232.936L28.52 235.354C30.008 239.983 32.1573 244.571 34.968 249.118C37.7787 253.623 40.0727 256.703 41.85 258.356C40.3207 258.769 38.7913 258.976 37.262 258.976C35.774 258.976 34.2653 258.48 32.736 257.488C31.2067 256.537 29.9253 255.483 28.892 254.326C27.9 253.169 26.784 251.329 25.544 248.808C24.304 246.287 23.4153 244.323 22.878 242.918C22.3407 241.513 21.7413 239.963 21.08 238.268C20.46 236.573 20.1293 235.664 20.088 235.54C20.0467 235.416 19.9847 235.271 19.902 235.106C19.8193 234.899 19.7573 234.713 19.716 234.548C18.8067 234.548 17.918 234.548 17.05 234.548L16.864 231.696C22.1133 231.489 26.0193 229.609 28.582 226.054C29.9873 224.07 30.69 222.045 30.69 219.978C30.69 219.193 30.6073 218.428 30.442 217.684C29.7393 214.997 28.0653 213.323 25.42 212.662C24.676 212.455 23.6427 212.352 22.32 212.352C20.9973 212.352 19.2407 212.786 17.05 213.654C17.05 215.225 16.4507 220.371 15.252 229.092C14.0947 237.772 13.516 245.026 13.516 250.854C13.516 253.458 13.64 255.483 13.888 256.93C12.5653 257.013 11.6973 257.054 11.284 257.054ZM64.2199 224.938C61.5332 224.938 59.1359 226.757 57.0279 230.394C54.9199 233.99 53.8659 237.586 53.8659 241.182C53.8659 248.705 55.8086 252.466 59.6939 252.466C62.4632 252.466 64.7159 250.668 66.4519 247.072C68.1879 243.435 69.0559 239.363 69.0559 234.858C69.0559 228.245 67.4439 224.938 64.2199 224.938ZM58.9499 219.358C59.4046 219.358 59.8179 219.503 60.1899 219.792C60.6032 220.04 60.8099 220.309 60.8099 220.598C56.6352 223.491 54.1346 227.521 53.3079 232.688C54.1759 230.373 55.2299 228.369 56.4699 226.674C57.7512 224.979 59.0739 223.698 60.4379 222.83C63.0419 221.218 65.5839 220.412 68.0639 220.412C70.5439 220.412 72.6519 221.631 74.3879 224.07C76.1239 226.509 76.9919 229.774 76.9919 233.866C76.9919 238.454 76.0619 242.67 74.2019 246.514C72.1352 250.854 69.2006 253.851 65.3979 255.504C63.2486 256.455 60.8926 256.93 58.3299 256.93C54.7339 256.93 51.5926 255.545 48.9059 252.776C46.2606 249.965 44.9379 245.956 44.9379 240.748C44.9379 235.499 46.2192 230.89 48.7819 226.922C51.3446 222.913 54.7339 220.391 58.9499 219.358ZM102.486 224.938C99.7988 224.938 97.4015 226.757 95.2935 230.394C93.1855 233.99 92.1315 237.586 92.1315 241.182C92.1315 248.705 94.0742 252.466 97.9595 252.466C100.729 252.466 102.982 250.668 104.718 247.072C106.454 243.435 107.322 239.363 107.322 234.858C107.322 228.245 105.71 224.938 102.486 224.938ZM97.2155 219.358C97.6702 219.358 98.0835 219.503 98.4555 219.792C98.8689 220.04 99.0755 220.309 99.0755 220.598C94.9008 223.491 92.4002 227.521 91.5735 232.688C92.4415 230.373 93.4955 228.369 94.7355 226.674C96.0169 224.979 97.3395 223.698 98.7035 222.83C101.308 221.218 103.85 220.412 106.33 220.412C108.81 220.412 110.918 221.631 112.654 224.07C114.39 226.509 115.258 229.774 115.258 233.866C115.258 238.454 114.328 242.67 112.468 246.514C110.401 250.854 107.466 253.851 103.664 255.504C101.514 256.455 99.1582 256.93 96.5955 256.93C92.9995 256.93 89.8582 255.545 87.1715 252.776C84.5262 249.965 83.2035 245.956 83.2035 240.748C83.2035 235.499 84.4848 230.89 87.0475 226.922C89.6102 222.913 92.9995 220.391 97.2155 219.358ZM149.493 249.428C149.493 251.495 149.617 253.685 149.865 256C148.542 256.083 147.674 256.124 147.261 256.124C144.946 256.124 143.272 255.731 142.239 254.946C141.206 254.119 140.689 252.921 140.689 251.35C140.689 249.779 141.123 246.555 141.991 241.678C142.9 236.759 143.355 233.039 143.355 230.518C143.355 227.955 142.528 226.674 140.875 226.674C139.966 226.674 138.974 227.232 137.899 228.348C136.824 229.423 135.812 230.911 134.861 232.812C133.91 234.672 133.104 237.069 132.443 240.004C131.823 242.939 131.513 245.77 131.513 248.498C131.513 251.185 131.637 253.685 131.885 256C130.562 256.083 129.694 256.124 129.281 256.124C126.966 256.124 125.292 255.731 124.259 254.946C123.226 254.119 122.709 252.755 122.709 250.854C122.709 250.399 123.122 247.32 123.949 241.616C124.817 235.912 125.251 231.407 125.251 228.1C125.251 224.752 124.9 221.693 124.197 218.924C127.256 219.875 129.384 221.239 130.583 223.016C131.782 224.793 132.381 226.984 132.381 229.588C132.381 230.911 132.236 232.585 131.947 234.61C133.352 230.477 135.295 227.046 137.775 224.318C140.296 221.59 142.714 220.226 145.029 220.226C147.385 220.226 149.08 221.094 150.113 222.83C151.188 224.566 151.725 227.067 151.725 230.332C153.296 227.315 155.094 224.876 157.119 223.016C159.144 221.156 161.004 220.226 162.699 220.226C165.22 220.226 166.998 220.991 168.031 222.52C169.106 224.008 169.643 226.054 169.643 228.658C169.643 231.221 169.23 234.837 168.403 239.508C167.618 244.179 167.225 247.589 167.225 249.738C167.225 251.846 167.494 253.396 168.031 254.388C168.568 255.339 169.478 256.165 170.759 256.868C170.222 256.909 169.457 256.93 168.465 256.93C164.993 256.93 162.513 256.393 161.025 255.318C159.578 254.243 158.855 252.363 158.855 249.676C158.855 248.147 159.268 245.171 160.095 240.748C160.922 236.284 161.335 232.957 161.335 230.766C161.335 228.038 160.508 226.674 158.855 226.674C157.615 226.674 156.272 227.583 154.825 229.402C153.42 231.179 152.18 233.887 151.105 237.524C150.03 241.12 149.493 245.088 149.493 249.428ZM203.776 244.344C202.288 244.923 201.131 245.212 200.304 245.212C197.824 245.212 196.439 244.861 196.15 244.158C192.017 233.535 189.289 226.695 187.966 223.636C187.842 224.752 187.511 227.335 186.974 231.386C185.858 239.322 185.3 245.915 185.3 251.164C185.3 252.445 185.383 254.161 185.548 256.31C182.655 256.31 180.691 255.979 179.658 255.318C178.666 254.615 178.17 253.644 178.17 252.404C178.17 251.991 178.852 246.369 180.216 235.54C181.621 224.711 182.324 217.167 182.324 212.91V212.6C181.125 210.657 179.865 209.066 178.542 207.826C180.071 206.751 181.911 206.214 184.06 206.214C186.788 206.214 188.896 207.495 190.384 210.058C191.872 212.579 194.786 219.544 199.126 230.952L201.978 238.268C202.226 237.855 202.598 237.297 203.094 236.594C213.179 221.673 218.367 211.546 218.656 206.214C218.656 206.255 219.152 206.317 220.144 206.4C221.136 206.441 222.19 206.648 223.306 207.02C224.463 207.351 225.29 207.888 225.786 208.632C226.323 209.335 226.654 210.037 226.778 210.74C226.902 211.401 226.964 212.559 226.964 214.212C226.964 215.824 226.282 221.301 224.918 230.642C223.554 239.983 222.872 246.535 222.872 250.296C222.872 254.016 223.161 256.558 223.74 257.922C220.227 257.013 217.829 255.814 216.548 254.326C215.267 252.797 214.626 250.689 214.626 248.002C214.626 246.431 215.039 242.567 215.866 236.408C216.734 230.249 217.333 225.331 217.664 221.652C216.011 224.504 213.655 228.41 210.596 233.37C207.579 238.33 205.76 241.285 205.14 242.236C204.52 243.145 204.065 243.848 203.776 244.344ZM249.331 240.748C247.347 240.748 245.404 240.521 243.503 240.066C243.462 240.479 243.441 241.12 243.441 241.988C243.441 245.419 244.082 248.002 245.363 249.738C246.644 251.474 248.174 252.342 249.951 252.342C251.728 252.342 253.423 251.805 255.035 250.73C256.647 249.655 258.052 248.167 259.251 246.266C260.739 246.597 261.483 247.361 261.483 248.56C257.846 254.14 253.154 256.93 247.409 256.93C243.937 256.93 240.899 255.607 238.295 252.962C235.691 250.275 234.389 246.555 234.389 241.802C234.389 238.247 235.071 234.879 236.435 231.696C237.799 228.472 239.969 225.765 242.945 223.574C245.921 221.342 249.207 220.226 252.803 220.226C256.44 220.226 259.106 221.053 260.801 222.706C262.496 224.359 263.343 226.529 263.343 229.216C263.343 233.101 261.979 235.995 259.251 237.896C256.564 239.797 253.258 240.748 249.331 240.748ZM251.935 224.07C249.827 224.07 248.05 225.372 246.603 227.976C245.156 230.58 244.206 233.742 243.751 237.462H244.681C248.277 237.462 250.922 236.532 252.617 234.672C254.353 232.812 255.221 230.58 255.221 227.976C255.221 226.901 254.932 225.992 254.353 225.248C253.816 224.463 253.01 224.07 251.935 224.07Z" fill="#2D2D2D"/>
</g>
<defs>
<filter id="filter0_d" x="42" y="0" width="194" height="194" filterUnits="userSpaceOnUse" color-interpolation-filters="sRGB">
<feFlood flood-opacity="0" result="BackgroundImageFix"/>
<feColorMatrix in="SourceAlpha" type="matrix" values="0 0 0 0 0 0 0 0 0 0 0 0 0 0 0 0 0 0 127 0"/>
<feOffset dy="4"/>
<feGaussianBlur stdDeviation="5"/>
<feColorMatrix type="matrix" values="0 0 0 0 0 0 0 0 0 0 0 0 0 0 0 0 0 0 0.5 0"/>
<feBlend mode="normal" in2="BackgroundImageFix" result="effect1_dropShadow"/>
<feBlend mode="normal" in="SourceGraphic" in2="effect1_dropShadow" result="shape"/>
</filter>
<filter id="filter1_d" x="110.143" y="39.1429" width="57.7143" height="57.7143" filterUnits="userSpaceOnUse" color-interpolation-filters="sRGB">
<feFlood flood-opacity="0" result="BackgroundImageFix"/>
<feColorMatrix in="SourceAlpha" type="matrix" values="0 0 0 0 0 0 0 0 0 0 0 0 0 0 0 0 0 0 127 0"/>
<feOffset dy="4"/>
<feGaussianBlur stdDeviation="2"/>
<feColorMatrix type="matrix" values="0 0 0 0 0 0 0 0 0 0 0 0 0 0 0 0 0 0 0.6 0"/>
<feBlend mode="normal" in2="BackgroundImageFix" result="effect1_dropShadow"/>
<feBlend mode="normal" in="SourceGraphic" in2="effect1_dropShadow" result="shape"/>
</filter>
<filter id="filter2_d" x="0.649994" y="204.788" width="266.693" height="62.188" filterUnits="userSpaceOnUse" color-interpolation-filters="sRGB">
<feFlood flood-opacity="0" result="BackgroundImageFix"/>
<feColorMatrix in="SourceAlpha" type="matrix" values="0 0 0 0 0 0 0 0 0 0 0 0 0 0 0 0 0 0 127 0"/>
<feOffset dy="4"/>
<feGaussianBlur stdDeviation="2"/>
<feColorMatrix type="matrix" values="0 0 0 0 0 0 0 0 0 0 0 0 0 0 0 0 0 0 0.4 0"/>
<feBlend mode="normal" in2="BackgroundImageFix" result="effect1_dropShadow"/>
<feBlend mode="normal" in="SourceGraphic" in2="effect1_dropShadow" result="shape"/>
</filter>
<clipPath id="clip0">
<rect width="49.7143" height="49.7143" fill="white" transform="translate(114.143 39.1429)"/>
</clipPath>
</defs>
</svg>
